<svg xmlns="http://www.w3.org/2000/svg" width="36.045" height="25.515" viewBox="0 0 36.045 25.515">
  <path id="Icon_open-audio" data-name="Icon open-audio" d="M5.22,0A17.781,17.781,0,0,0,0,12.645a17.912,17.912,0,0,0,5.22,12.78l3.24-3.24A13.5,13.5,0,0,1,4.5,12.6a12.972,12.972,0,0,1,3.96-9.4L5.22-.045Zm25.6,0-3.24,3.24a13.152,13.152,0,0,1,3.96,9.4,13.465,13.465,0,0,1-3.96,9.585l3.24,3.24a18.1,18.1,0,0,0,5.22-12.78A17.6,17.6,0,0,0,30.825.045ZM11.7,6.345A8.983,8.983,0,0,0,9.045,12.69,9.3,9.3,0,0,0,11.7,19.17l3.1-3.24a4.557,4.557,0,0,1-1.26-3.24,4.314,4.314,0,0,1,1.26-3.1l-3.1-3.24Zm12.645,0-3.1,3.24A4.239,4.239,0,0,1,22.5,12.69a4.557,4.557,0,0,1-1.26,3.24l3.1,3.24A9.3,9.3,0,0,0,27,12.69a8.983,8.983,0,0,0-2.655-6.345Z" transform="translate(0 0.045)"/>
</svg>
